<?xml version="1.0" encoding="utf-8"?>
<!-- Generator: Adobe Illustrator 24.1.2, SVG Export Plug-In . SVG Version: 6.00 Build 0)  -->
<svg version="1.1" id="Capa_1" xmlns="http://www.w3.org/2000/svg" xmlns:xlink="http://www.w3.org/1999/xlink" x="0px" y="0px"
	 viewBox="0 0 512 512" style="enable-background:new 0 0 512 512;" xml:space="preserve">
<style type="text/css">
	.st0{fill:#FFFFFF;}
</style>
<path class="st0" d="M432.7,112.5H204.3c-6.3-18.7-23.9-32.1-44.7-32.1s-38.4,13.5-44.7,32.1H79.3c-8.3,0-15,6.7-15,15s6.7,15,15,15
	h35.7c6.3,18.7,23.9,32.1,44.7,32.1s38.4-13.5,44.7-32.1h228.5c8.3,0,15-6.7,15-15S441,112.5,432.7,112.5z M159.6,144.6
	c-9.4,0-17.1-7.7-17.1-17.1s7.7-17.1,17.1-17.1s17.1,7.7,17.1,17.1S169,144.6,159.6,144.6z"/>
<path class="st0" d="M432.7,241h-35.7c-6.3-18.7-23.9-32.1-44.7-32.1S314,222.3,307.7,241H79.3c-8.3,0-15,6.7-15,15s6.7,15,15,15
	h228.5c6.3,18.7,23.9,32.1,44.7,32.1s38.4-13.5,44.7-32.1h35.7c8.3,0,15-6.7,15-15S441,241,432.7,241z M352.4,273.1
	c-9.4,0-17.1-7.7-17.1-17.1s7.7-17.1,17.1-17.1s17.1,7.7,17.1,17.1S361.8,273.1,352.4,273.1z"/>
<path class="st0" d="M432.7,369.5H268.5c-6.3-18.7-23.9-32.1-44.7-32.1s-38.4,13.5-44.7,32.1H79.3c-8.3,0-15,6.7-15,15s6.7,15,15,15
	h99.9c6.3,18.7,23.9,32.1,44.7,32.1s38.4-13.5,44.7-32.1h164.2c8.3,0,15-6.7,15-15S441,369.5,432.7,369.5z M223.9,401.7
	c-9.4,0-17.1-7.7-17.1-17.1s7.7-17.1,17.1-17.1s17.1,7.7,17.1,17.1S233.3,401.7,223.9,401.7z"/>
</svg>
