<?xml version="1.0" encoding="utf-8"?>
<!-- Generator: Adobe Illustrator 24.1.2, SVG Export Plug-In . SVG Version: 6.00 Build 0)  -->
<svg version="1.1" id="Layer_1" xmlns:svgjs="http://svgjs.com/svgjs"
	 xmlns="http://www.w3.org/2000/svg" xmlns:xlink="http://www.w3.org/1999/xlink" x="0px" y="0px" viewBox="0 0 258 256"
	 style="enable-background:new 0 0 258 256;" xml:space="preserve">
<style type="text/css">
	.st0{fill:#FFFFFF;}
</style>
<g>
	<path class="st0" d="M120.7,133l20,50l30-100l-100,30L120.7,133z"/>
	<path class="st0" d="M130.7,13c-60.7,0-110,49.3-110,110v110c0,3.8,2.1,7.2,5.4,8.9c1.4,0.7,3,1.1,4.6,1.1c2.1,0,4.1-0.6,5.8-1.9
		l35.2-25.3c17.6,11.2,37.9,17.1,59,17.1c60.7,0,110-49.3,110-110S191.4,13,130.7,13z M130.7,213c-19.3,0-37.7-6-53.2-17.4
		c-3.5-2.6-8.2-2.6-11.8-0.1l-25,18V123c0-49.6,40.4-90,90-90s90,40.4,90,90S180.4,213,130.7,213z"/>
</g>
</svg>
