<svg id="Capa_1" enable-background="new 0 0 512.002 512.002" height="512" viewBox="0 0 512.002 512.002" width="512" xmlns="http://www.w3.org/2000/svg"><g><g><path d="m157.561 509.243h-69.71c-7.266 0-13.487-5.18-14.766-12.294-6.855-38.148-24.896-108.65-68.69-152.208-5.453-5.423-5.883-14.076-.994-20.007 4.89-5.933 13.503-7.21 19.92-2.956 98.695 65.435 135.231 127.434 148.501 167.922 1.489 4.543.7 9.52-2.122 13.387-2.821 3.867-7.335 6.156-12.139 6.156z" fill="#a9e551"/></g><g><path d="m424.151 509.243h-69.71c-4.804 0-9.317-2.289-12.14-6.156-2.822-3.867-3.611-8.845-2.122-13.387 13.27-40.488 49.806-102.487 148.501-167.922 6.417-4.254 15.032-2.976 19.92 2.955 4.889 5.932 4.459 14.584-.994 20.008-43.795 43.559-61.835 114.06-68.69 152.208-1.278 7.114-7.499 12.294-14.765 12.294z" fill="#78d44d"/></g><g><path d="m201.298 408.749c-14.338-44.923-46.829-110.183-120.185-165.978-6.275-4.771-15.194-3.887-20.397 2.024s-4.906 14.822.679 20.377c73.96 73.562 59.831 226.153 59.68 227.677-.419 4.193.964 8.366 3.808 11.49 2.844 3.123 6.882 4.905 11.119 4.905h64c7.945 0 14.511-6.161 14.975-14.049.087-1.505 1.98-37.385-13.679-86.446z" fill="#78d44d"/></g><g><path d="m451.287 244.795c-5.203-5.911-14.123-6.797-20.397-2.024-73.356 55.794-105.847 121.055-120.185 165.978-15.659 49.061-13.766 84.941-13.678 86.445.463 7.888 7.03 14.049 14.975 14.049h64c4.233 0 8.269-1.783 11.112-4.903 2.844-3.12 4.229-7.293 3.815-11.484-.151-1.532-14.281-154.123 59.679-227.685 5.585-5.554 5.882-14.465.679-20.376z" fill="#00a78e"/></g><g><path d="m302.631 385.225c-1.54 6.793-7.62 11.627-14.63 11.627h-64c-4.37 0-8.52-1.9-11.37-5.192s-4.11-7.658-3.46-11.955c.39-2.586 38.6-259.842-14.38-357.712-3.84-7.091-1.32-15.923 5.68-19.972 6.99-4.048 15.96-1.83 20.25 4.993 13.16 20.946 24.95 42.53 35.28 64.63 11.71 25.034 21.57 50.735 29.49 76.884 11.93 39.406 19.49 79.917 22.47 120.417 5.1 69.305-4.9 114.39-5.33 116.28z" fill="#78d44d"/></g><path d="m288.001 396.852h-32v-325.208c11.71 25.034 21.57 50.735 29.49 76.884 11.93 39.406 19.49 79.917 22.47 120.417 5.1 69.305-4.9 114.39-5.33 116.28-1.54 6.793-7.62 11.627-14.63 11.627z" fill="#00a78e"/><g><path d="m264.97 390.815c-6.589-37.683-18.411-76.284-35.137-114.733-20.801-47.816-49.298-95.553-84.699-141.882-4.685-6.132-13.293-7.709-19.869-3.638-6.574 4.07-8.953 12.449-5.49 19.338 44.118 87.76 56.648 175.857 59.391 234.308 2.988 63.678-4.659 107.044-4.735 107.464-.791 4.35.399 8.826 3.249 12.219s7.066 5.354 11.512 5.354h64c7.101 0 13.229-4.952 14.682-11.865.351-1.669 8.457-41.589-2.904-106.565z" fill="#a9e551"/></g><g><path d="m332.791 385.096c-2.89 63.476 4.7 106.155 4.78 106.573.79 4.356-.4 8.832-3.25 12.224s-7.07 5.351-11.51 5.351h-64c-.96 0-1.9-.09-2.81-.269v-158.541c6.62-24.656 15.37-49.542 26.17-74.357 20.8-47.811 49.3-95.552 84.7-141.881 4.68-6.127 13.29-7.708 19.87-3.63 6.57 4.068 8.95 12.443 5.49 19.335-44.28 88.082-56.76 176.513-59.44 235.195z" fill="#78d44d"/></g><g><path d="m479.001 497.002c0 8.28-6.72 15-15 15h-416c-8.28 0-15-6.72-15-15s6.72-15 15-15h416c8.28 0 15 6.72 15 15z" fill="#c6865c"/></g><g><path d="m479.001 497.002c0 8.28-6.72 15-15 15h-208v-30h208c8.28 0 15 6.72 15 15z" fill="#af705c"/></g></g></svg>