<svg id="Layer_1" enable-background="new 0 0 512.001 512.001" height="512" viewBox="0 0 512.001 512.001" width="512" xmlns="http://www.w3.org/2000/svg"><path d="m400.882 365.141c-97-19.736-194.416-19.931-289.543-.577-64.688 13.16-110.511 68.054-110.511 130.908 0 10.056 7.673 16.528 16 16.528h478.344c8.837 0 16-7.163 16-16 0-63.1-46.038-117.786-110.29-130.859z" fill="#c69a85"/><path d="m400.882 365.141c-97-19.736-194.416-19.931-289.543-.577-43.814 8.913-81.913 37.992-99.911 79.822 33.664 7.487 96.339 8.352 212.982-13.264 124.943-23.154 214.261-11.143 273.279 7.508-19.169-38.857-55.821-65.15-96.807-73.489z" fill="#dfb7a4"/><path d="m256.004 101.103c-8.836 0-16 7.163-16 16v307.99c0 8.837 7.164 16 16 16 8.837 0 16-7.163 16-16v-307.99c0-8.837-7.163-16-16-16z" fill="#77a042"/><path d="m268.877 78.187c-15.416-48.153-60.475-79.492-109.188-78.145-5.788.159-11.038 3.433-13.729 8.561-18.429 35.125-16.952 78.003 3.854 111.902 49.033 79.891 140.229 23.786 119.063-42.318z" fill="#9bd65e"/><path d="m262.184 61.835c-20.088-39.958-60.816-62.946-102.495-61.793-5.788.159-11.038 3.433-13.729 8.561-13.566 25.855-16.331 55.908-8.555 83.492 8.483-3.259 17.376-7.272 26.704-12.167 38.986-20.458 71.748-23.321 98.075-18.093z" fill="#aced70"/><path d="m268.495 152.299-29.961-47.219c-4.734-7.461-14.62-9.673-22.082-4.938-7.461 4.734-9.672 14.621-4.938 22.082l29.961 47.219c4.735 7.462 14.625 9.671 22.082 4.938 7.461-4.734 9.672-14.621 4.938-22.082z" fill="#77a042"/><path d="m444.313 135.71c-.839-5.729-4.707-10.559-10.115-12.627-56.552-21.631-121.331-2.821-158.368 46.137-38.685 51.131.423 119.937 58.049 119.937 52.789 0 122.977-67.767 110.434-153.447z" fill="#aced70"/><path d="m444.313 135.71c-.839-5.729-4.707-10.559-10.115-12.627-85.062-32.536-171.139 29.945-173.771 88.147 43.036 20.18 92.221 33.157 116.808-3.269 19.475-28.851 44.794-36.69 67.608-36.578 1.352-11.751 1.217-23.738-.53-35.673z" fill="#c8f29c"/><path d="m343.251 209.511c-4.516-7.596-14.334-10.092-21.93-5.574l-66.067 39.287c-13.932 8.285-8.033 29.755 8.193 29.755 6.022 0 3.039.795 74.229-41.538 7.596-4.516 10.092-14.335 5.575-21.93z" fill="#77a042"/><path d="m191.521 235.744c-53.303-39.183-125.955-38.699-177.696.999-4.594 3.525-6.925 9.257-6.096 14.987 7.525 51.979 42.423 96.811 91.073 116.999 14.057 5.833 32.39 10.735 47.666 10.735 73.796.001 108.019-97.426 45.053-143.72z" fill="#91c656"/><path d="m13.825 236.743c-4.594 3.525-6.925 9.257-6.096 14.987 1.692 11.688 4.78 23.011 9.085 33.778 12.396-.811 26.535-.522 42.611 1.359 44.462 5.203 113.204-1.109 158.755-17.78-23.917-56.064-128.826-90.295-204.355-32.344z" fill="#9bd65e"/><path d="m256.588 323.636-96.803-37.481c-8.243-3.19-17.507.904-20.698 9.144s.903 17.507 9.143 20.698l96.803 37.481c8.242 3.191 17.508-.906 20.698-9.144 3.191-8.24-.903-17.507-9.143-20.698z" fill="#77a042"/></svg>