<?xml version="1.0"?>
<svg xmlns="http://www.w3.org/2000/svg" xmlns:xlink="http://www.w3.org/1999/xlink" xmlns:svgjs="http://svgjs.com/svgjs" version="1.1" width="512" height="512" x="0" y="0" viewBox="0 0 511.858 511.858" style="enable-background:new 0 0 512 512" xml:space="preserve" class=""><g>
<g xmlns="http://www.w3.org/2000/svg">
	<g>
		<g>
			<path d="M344.624,345.265c3.592-3.533,3.649-9.307,0.126-12.91l-36.837-37.453l65.748-65.752     c5.145-5.142,8.036-12.119,8.036-19.393s-2.891-14.25-8.036-19.393l-51.723-51.723c-5.142-5.145-12.119-8.036-19.393-8.036     c-7.274,0-14.25,2.891-19.393,8.036l-65.674,65.675l-37.826-37.121c-3.607-3.524-9.385-3.462-12.916,0.137     c-3.531,3.6-3.481,9.378,0.112,12.916l37.699,36.997l-50.699,50.699c-24.95,25.003-24.928,65.492,0.05,90.468     s65.467,24.994,90.468,0.041l50.618-50.622l36.73,37.345C335.258,348.758,341.032,348.798,344.624,345.265z" fill="#ffffff" data-original="#000000" style=""/>
			<path d="M131.259,361.721c-21.512-21.449-56.263-21.64-78.009-0.429l96.786,96.786c21.22-21.742,21.029-56.501-0.429-78.009     L131.259,361.721z" fill="#ffffff" data-original="#000000" style=""/>
			<path d="M391.018,159.132c5.155-5.142,8.042-12.13,8.018-19.411c0.012-11.103-6.67-21.119-16.928-25.37     c-10.257-4.251-22.066-1.898-29.911,5.959l-11.366,11.366l38.821,38.821L391.018,159.132z" fill="#ffffff" data-original="#000000" style=""/>
			<path d="M173.6,160.285l24.73-24.734c3.75-3.75,3.75-9.83,0-13.58l-51.162-51.162l-31.506,31.538L173.6,160.285z" fill="#ffffff" data-original="#000000" style=""/>
			<path d="M70.367,147.686l51.124,51.124c3.805,3.625,9.785,3.625,13.589,0l25.591-25.595l-57.933-57.933L70.367,147.686z" fill="#ffffff" data-original="#000000" style=""/>
			<path d="M134.24,57.881L79.652,3.293c-3.75-3.75-9.83-3.75-13.58,0l-24.734,24.73l61.396,61.396L134.24,57.881z" fill="#ffffff" data-original="#000000" style=""/>
			<path d="M89.81,102.353L28.408,40.95L2.812,66.543c-3.75,3.754-3.75,9.836,0,13.589l54.626,54.626L89.81,102.353z" fill="#ffffff" data-original="#000000" style=""/>
			<path d="M383.571,310.328c-2.55-0.008-4.996,1.005-6.795,2.813l-25.161,25.161l61.381,61.381l31.939-31.972l-54.569-54.57     C388.568,311.333,386.121,310.32,383.571,310.328z" fill="#ffffff" data-original="#000000" style=""/>
			<path d="M338.688,351.23l-25.161,25.161c-3.75,3.754-3.75,9.836,0,13.589l54.608,54.608l31.939-31.971L338.688,351.23z" fill="#ffffff" data-original="#000000" style=""/>
			<path d="M509.045,431.819L509.045,431.819l-51.181-51.18l-31.939,31.971l57.959,57.959l25.161-25.161     C512.795,441.655,512.795,435.573,509.045,431.819z" fill="#ffffff" data-original="#000000" style=""/>
			<path d="M381.064,457.517l51.142,51.142c3.805,3.625,9.785,3.625,13.589,0l25.161-25.161l-57.953-57.953L381.064,457.517z" fill="#ffffff" data-original="#000000" style=""/>
		</g>
	</g>
</g>
<g xmlns="http://www.w3.org/2000/svg">
</g>
<g xmlns="http://www.w3.org/2000/svg">
</g>
<g xmlns="http://www.w3.org/2000/svg">
</g>
<g xmlns="http://www.w3.org/2000/svg">
</g>
<g xmlns="http://www.w3.org/2000/svg">
</g>
<g xmlns="http://www.w3.org/2000/svg">
</g>
<g xmlns="http://www.w3.org/2000/svg">
</g>
<g xmlns="http://www.w3.org/2000/svg">
</g>
<g xmlns="http://www.w3.org/2000/svg">
</g>
<g xmlns="http://www.w3.org/2000/svg">
</g>
<g xmlns="http://www.w3.org/2000/svg">
</g>
<g xmlns="http://www.w3.org/2000/svg">
</g>
<g xmlns="http://www.w3.org/2000/svg">
</g>
<g xmlns="http://www.w3.org/2000/svg">
</g>
<g xmlns="http://www.w3.org/2000/svg">
</g>
</g></svg>
